<svg xmlns="http://www.w3.org/2000/svg" width="256" height="256"><path fill="#1976D2" fill-opacity=".016" fill-rule="evenodd" d="M0 128.004v128.004l128.25-.254 128.25-.254.254-127.75L257.008 0H0zm.485.496c0 70.4.119 99.053.265 63.672s.146-92.98 0-128S.485 58.1.485 128.5"/><path fill="#1976D2" fill-opacity=".183" fill-rule="evenodd" d="M113.869 1.437c-.203.189-2.169.603-4.369.921-14.927 2.159-27.115 5.894-39.844 12.211-11.938 5.925-20.366 12.046-31.457 22.844-32.805 31.94-45.672 79.63-33.631 124.65 10.964 40.994 44.168 75.483 84.932 88.222 24.254 7.579 52.814 7.588 76.881.023 39.477-12.409 71.538-44.472 83.923-83.927 3.925-12.502 6.968-32.239 6.435-41.725-2.358-41.905-23.476-80.061-56.468-102.024C177.99 7.799 158.892 1.961 130.869 1.417c-9.147-.177-16.797-.168-17 .02M.365 128.5c.003 5.5.171 7.622.373 4.716.203-2.905.201-7.405-.004-10S.363 123 .365 128.5"/><path fill="#1976D2" fill-opacity=".21" fill-rule="evenodd" d="M105.785 16.922C93.711 19.546 87.93 21.55 77.5 26.728 44.745 42.991 21.744 74.19 15.979 110.179c-1.994 12.446-.817 35.115 2.456 47.321C29.721 199.582 63.56 231.688 106 240.58c11.723 2.457 33.528 2.464 45 .015 33.903-7.236 60.432-27.581 78.006-59.82 2.181-4.001 3.972-6.878 3.98-6.394.03 1.88-8.526 16.776-13.371 23.28-45.836 61.53-136.384 61.476-182.838-.109-5.988-7.939-14.727-24.314-16.969-31.798-.855-2.856-1.553-3.683-2.729-3.236-1.265.481-1.331.35-.329-.659.688-.692 1.243-1.956 1.235-2.809-.014-1.366-.131-1.372-.985-.05q-.969 1.5-.985.25c-.008-.687-.465-1.25-1.015-1.25s-1 .675-1 1.5c0 .924-.938 1.5-2.441 1.5-2.07 0-2.572.646-3.302 4.25-.474 2.338-.526 4.392-.115 4.565.41.173.498.96.195 1.75-.303.789-.026 1.435.615 1.435s.888.45.548 1-.093 1 .548 1 .907.675.59 1.5c-.316.825-.113 1.5.452 1.5s.75.45.41 1-.115 1 .5 1 .84.45.5 1-.141 1 .441 1 .97.338.861.75c-.372 1.407 1.33 5.25 2.324 5.25.546 0 .714.45.374 1s-.216 1 .274 1c.491 0 .893.605.893 1.345 0 2.798 11.195 17.502 20.333 26.706 33.897 34.143 82.762 45.957 129.374 31.279 43.659-13.747 77.288-52.051 85.994-97.948 2.319-12.225 3.189-28.006 1.646-29.865-.837-1.008-1.047-2.91-.617-5.596.397-2.485.28-3.839-.301-3.48-1.183.731-2.34-2.642-1.583-4.613.306-.8-.435-2.326-1.647-3.391-2.183-1.918-2.198-1.918-1.483.033.398 1.083.415 1.661.038 1.285-.376-.377-1.515-.24-2.53.303-1.428.765-1.725.673-1.311-.406.294-.767-.184-1.67-1.063-2.007-.959-.368-1.534-.12-1.439.621.088.679.074 1.909-.03 2.734-.137 1.09-.447.953-1.132-.5-.763-1.616-.848-1.425-.446 1 .273 1.65.698 9.075.944 16.5l.448 13.5-.819-12c-1.427-20.885-4.232-31.977-12.139-48-14.336-29.05-41.089-50.852-72.627-59.185-13.501-3.567-38.385-4.24-51.492-1.393M72.403 48.393c-.511 1.332 12.966 20.39 33.756 47.734 4.863 6.396 8.841 12.36 8.841 13.255 0 .894-9 13.098-20 27.118s-20 25.774-20 26.118c0 .345.787.009 1.75-.746 1.584-1.242 1.62-1.207.387.367-.75.956-1.758 1.495-2.239 1.198-1.145-.708-6.652 8.012-8.089 12.806-.838 2.796-.828 4.313.037 6 1.035 2.016 1.098 1.883.596-1.243-.323-2.007-.206-2.988.275-2.3.577.824 1.275.215 2.232-1.948.767-1.731 3.45-5.196 5.963-7.7 2.513-2.503 4.423-5.002 4.245-5.552s-.004-.68.386-.29c1.098 1.097 6.624-2.13 5.835-3.407-.409-.663-.233-.832.436-.418.618.382 2.825-.25 4.905-1.404s2.97-1.852 1.979-1.551c-1.115.338-1.553.144-1.149-.51.359-.581 1.288-.813 2.064-.515 3.132 1.202 7.242-2.664 23.692-22.286 9.457-11.281 17.957-21.473 18.887-22.649 1.644-2.077 1.455-2.461-6.5-13.213-22.258-30.085-24.715-33.634-23.871-34.478.496-.496 13.956-.756 30.361-.585l29.469.306 3.621 2.483c3.69 2.53 7.728 8.488 7.728 11.403 0 .954.828 1.614 2.026 1.614 1.958 0 2.017-.51 1.75-15.25L181.5 47.5l-54.278-.259c-45.953-.219-54.361-.042-54.819 1.152M220.107 105c-.315 13.131-4.313 22.901-13.326 32.56-6.103 6.54-13.754 11.203-22.781 13.882-3.025.897-14.275 2.286-25 3.086-33.124 2.469-52.741 6.231-62.645 12.013-11.191 6.534-12.609 16.131-3.389 22.934 3.65 2.693 5.9 3.512 2.534.923-1.1-.847-1.888-1.957-1.75-2.469s-.088-.876-.5-.811c-3.004.475-5.34-3.126-5.134-7.915.069-1.597.299-2.008.564-1.003.37 1.407.858 1.512 2.837.61 1.315-.599 2.584-1.813 2.821-2.699.364-1.365.448-1.343.546.139.154 2.32 7.116 2.564 7.116.25 0-.825.627-1.5 1.393-1.5s1.652-.675 1.969-1.5c.316-.825 1.728-1.5 3.138-1.5 3.058 0 4.259-2.377 2.362-4.675-1.415-1.714-1.178-1.671 3.392.62 3.134 1.57 3.558 1.367 4.064-1.947.251-1.646 1.416-2.761 3.773-3.613 3.115-1.126 3.193-1.248.909-1.409-1.92-.136-1.573-.4 1.5-1.14 2.2-.53 5.575-.722 7.5-.428 2.034.311 2.945.189 2.175-.292-1.204-.751 7.225-1.64 34.804-3.669 10.208-.752 21.484-4.15 29.213-8.803 3.13-1.885 5.98-3.139 6.333-2.786s.492-.033.308-.858c-.183-.825.23-1.387.917-1.25.688.138 1.138-.292 1-.955-.137-.662.275-1.225.917-1.25 1.358-.052 2.779-1.315 2.958-2.628.069-.505.181-1.367.25-1.917s.688-.887 1.375-.75c.688.138 1.122-.36.965-1.105-.157-.746.226-1.972.851-2.725s2.205-3.968 3.512-7.144c2.706-6.581 3.205-4.32.837 3.792-2.096 7.18-5.68 13.225-11.818 19.932l-5.033 5.5 4.768-4.5c5.562-5.248 9.964-11.763 12.191-18.043 2.286-6.445 3.498-18.521 2.555-25.457l-.816-6zm19.972-2.417c.048 1.165.285 1.402.604.605.289-.722.253-1.585-.079-1.917s-.568.258-.525 1.312m4 7c.048 1.165.285 1.402.604.605.289-.722.253-1.585-.079-1.917s-.568.258-.525 1.312M241.232 142c0 1.925.206 2.713.457 1.75.252-.963.252-2.537 0-3.5-.251-.963-.457-.175-.457 1.75m-1.037 6.5c.02 1.65.244 2.204.498 1.231s.237-2.323-.037-3-.481.119-.461 1.769m-1.116 5.083c.048 1.165.285 1.402.604.605.289-.722.253-1.585-.079-1.917s-.568.258-.525 1.312m-1 4c.048 1.165.285 1.402.604.605.289-.722.253-1.585-.079-1.917s-.568.258-.525 1.312M236.2 163.7c-.624 2.034-.97 3.864-.767 4.066s.907-1.267 1.567-3.266 1.005-3.828.767-4.066-.943 1.232-1.567 3.266m-119.45-2.038c.688.278 1.813.278 2.5 0 .688-.277.125-.504-1.25-.504s-1.937.227-1.25.504m-3.937 1.021c.721.289 1.584.253 1.916-.079s-.258-.568-1.312-.525c-1.165.048-1.402.285-.604.604m-4 1c.721.289 1.584.253 1.916-.079s-.258-.568-1.312-.525c-1.165.048-1.402.285-.604.604m59.937.979c.688.278 1.813.278 2.5 0 .688-.277.125-.504-1.25-.504s-1.937.227-1.25.504m-7.481 1.031c.973.254 2.323.237 3-.037s-.119-.481-1.769-.461-2.204.244-1.231.498m-7.456.99c.721.289 1.584.253 1.916-.079s-.258-.568-1.312-.525c-1.165.048-1.402.285-.604.604m-79.323 1.333c-.346.559-1.016.777-1.49.484s-1.12-.115-1.436.396c-.811 1.313 2.212.728 3.646-.706.655-.655.902-1.19.549-1.19s-.924.457-1.269 1.016m73.323-.333c.721.289 1.584.253 1.916-.079s-.258-.568-1.312-.525c-1.165.048-1.402.285-.604.604m-5 1c.721.289 1.584.253 1.916-.079s-.258-.568-1.312-.525c-1.165.048-1.402.285-.604.604m-49.941 2.067c-1.243 1.586-1.208 1.621.378.378.963-.755 1.75-1.543 1.75-1.75 0-.823-.821-.294-2.128 1.372m140.752-.211c-.965 2.514-.681 3.163.498 1.136.584-1.004.851-2.036.593-2.293-.257-.258-.749.263-1.091 1.157M100 172.5c0 .825.45 1.5 1 1.5s1-.675 1-1.5-.45-1.5-1-1.5-1 .675-1 1.5m31-.5c-.825.533-1.05.969-.5.969s1.675-.436 2.5-.969 1.05-.969.5-.969-1.675.436-2.5.969m-62.417 2.643c-.918 2.394-.202 2.578 1.213.312.672-1.075.815-1.955.319-1.955s-1.185.739-1.532 1.643m56.635 1.107c-2.392 2.337-2.432 2.452-.266.765 4.268-3.325 4.471-3.515 3.764-3.515-.377 0-1.951 1.238-3.498 2.75M65.465 186c1.175 5.881 2.648 11.221 2.995 10.851.503-.539-2.216-12.945-3.002-13.692-.38-.363-.377.916.007 2.841m58.874-.601c1.561 1.275 6.286 3.823 10.5 5.662 11.309 4.937 18.385 9.33 25.336 15.729 4.435 4.082 5.515 4.769 3.79 2.411-1.328-1.815-4.901-5.188-7.94-7.497-5.896-4.478-36.473-20.212-31.686-16.305m-9.179 23.848c-.381 8.925-16.292 18.659-30.66 18.756-2.501.017-3.512.337-2.696.854.717.455 3.581.467 6.365.027 16.534-2.613 28.629-11.439 27.556-20.108-.403-3.26-.406-3.258-.565.471"/><path fill="#1976D2" fill-opacity=".197" fill-rule="evenodd" d="M108.597 16.543C40.119 29.463-.207 96.647 20.586 163.172c9.383 30.018 31.558 55.184 60.632 68.809 14.518 6.803 24.919 9.164 42.948 9.747 22.799.737 37.409-2.348 55.834-11.792 50.256-25.759 74.438-88.551 54.503-141.527-13.088-34.778-41.929-60.584-78.333-70.09-12.39-3.235-35.308-4.091-47.573-1.776m3.188 3.008c-42.614 6.635-77.588 37.135-89.253 77.838-2.884 10.063-5.442 32.101-3.904 33.639.627.627.817-.34.538-2.734-.388-3.322-.275-3.546 1.096-2.175.911.911 1.372 2.709 1.142 4.455-.373 2.821-.351 2.81.633-.324 1.003-3.196 3.963-4.583 3.963-1.857 0 1.441 2.886 3.055 3.81 2.131.288-.288-.002-.524-.643-.524-.642 0-1.167-.48-1.167-1.067 0-.602.847-.799 1.941-.452 3.719 1.181 21.891.903 23.41-.357 1.143-.949 1.566-.931 1.973.084.285.711.554.28.597-.958.075-2.139.473-2.25 8.079-2.25 6.444 0 8-.292 8-1.5 0-.825.45-1.5 1-1.5s1 .675 1 1.5.45 1.5 1 1.5 1-.725 1-1.611c0-1.365 1.178-1.569 7.75-1.338 10.693.376 12.25.179 12.25-1.551 0-.825.675-1.5 1.5-1.5s1.5-.398 1.5-.883c0-.915 3.007-2.144 6.516-2.663 3.822-.565 4.986-.957 5.668-1.906.817-1.137.096-2.548-1.302-2.548-.55 0-.679.52-.287 1.155.46.744.273.881-.528.387-.863-.534-.923-1.086-.197-1.812.727-.727 1.515-.655 2.588.235 2.652 2.201 1.884-1.304-.958-4.37-1.375-1.484-2.508-3.237-2.517-3.897-.01-.659-1.123-2.246-2.474-3.527s-2.358-2.632-2.238-3c.119-.369-5.646-8.771-12.813-18.671C75.448 56.766 72.085 51.903 74.205 54c2.163 2.14 39.871 53.036 40.492 54.653.48 1.25-9.732 15.65-12.124 17.097-.59.357.187-1.016 1.728-3.05 1.54-2.035 2.44-3.683 2-3.662-.441.021-2.065 1.864-3.609 4.095s-2.332 3.763-1.75 3.403 1.058-.233 1.058.283c0 1.074-2.024 2.923-3.5 3.196-.55.102-.872.637-.715 1.19.43 1.515-1.863 3.865-3.053 3.129-.624-.385-.739-.155-.289.575.921 1.489-2.299 5.298-3.731 4.413-.588-.363-.716-.137-.301.533.425.689-3.397 6.37-9.356 13.905-11.282 14.267-15.148 21.149-15.822 28.169-.49 5.101 1.961 15.455 3.95 16.684.809.5.922.139.376-1.199-.429-1.053-1.014-4.915-1.298-8.583-.429-5.525-.141-7.448 1.683-11.216 3.079-6.359 11.35-13.532 21.874-18.967 7.209-3.723 10.112-5.944 14.882-11.387 7.718-8.805 30.688-36.386 31.693-38.054.477-.793-.296-2.728-1.998-5-1.527-2.039-3.869-5.17-5.204-6.957-1.336-1.787-2.204-3.25-1.93-3.25s2.376 2.487 4.671 5.527c2.454 3.249 4.633 5.242 5.29 4.836.728-.45.895-.11.479.973-.351.915-.176 1.664.389 1.664.566 0 .752.446.415.992s-.131 1.783.458 2.75c.827 1.357.943.788.506-2.492-.454-3.414-.261-4.25.983-4.25.851 0 1.548.45 1.548 1 0 .588 3.5 1 8.5 1s8.5-.412 8.5-1c0-.55.675-1 1.5-1s1.5.446 1.5.992c0 1.819 6.475.411 6.849-1.49.306-1.553 1.143-1.699 6.75-1.175 3.848.359 6.401.214 6.401-.365 0-.529-.675-.962-1.5-.962-.833 0-1.5-.889-1.5-2s.667-2 1.5-2c.825 0 1.5.675 1.5 1.5 0 .833.889 1.5 2 1.5 1.467 0 2-.667 2-2.5 0-1.375.45-2.5 1-2.5s1 .9 1 2c0 2.19 3.539 2.884 4.224.828.22-.661 3.133-1.371 6.671-1.627l6.28-.454-.516-3.624c-.283-1.992-.29-2.836-.014-1.873.657 2.293 7.355 2.521 7.355.25 0-.825.45-1.5 1-1.5s1 .675 1 1.5c0 2.309 1.691 1.777 2.383-.75.485-1.767.81-1.95 1.516-.854 1.107 1.718 4.101.73 4.101-1.353q0-1.52 2.523-1.312c1.64.136 2.343.675 2.011 1.541-.281.732-.066 1.057.477.721.544-.336.989-.059.989.615s.258.967.573.652c.931-.931-6.046-15.161-11.254-22.956-5.967-8.929-18.671-21.963-27.386-28.096-14.767-10.394-29.998-16.448-48.164-19.145-12.457-1.85-20.164-1.853-31.984-.012M181.984 65c-.477 13.309-.517 13.499-2.783 13.415-2.076-.076-2.149.066-.75 1.465 1.391 1.39 1.706 1.392 3.079.018 1.254-1.254 1.477-3.956 1.234-14.964l-.296-13.434zm-75.322-.938c.701.701 10.279 1.031 28.233.97 16.207-.054 28.752.334 31.086.963 4.421 1.19 9.666 5.901 10.314 9.263.377 1.952.45 1.983.565.242.195-2.949-3.377-8.235-7.101-10.505-3.063-1.868-5.089-1.988-33.709-1.991-21.482-.003-30.137.309-29.388 1.058M123 86.378c0 .207.787.995 1.75 1.75 1.586 1.243 1.621 1.208.378-.378-1.307-1.666-2.128-2.195-2.128-1.372m3 4c0 .207.787.995 1.75 1.75 1.586 1.243 1.621 1.208.378-.378-1.307-1.666-2.128-2.195-2.128-1.372m93.628 15.536c-1.621 19.432-10.261 33.247-25.708 41.105-8.609 4.379-15.763 5.788-37.827 7.45-36.855 2.775-54.863 7.016-64.735 15.245-3.329 2.776-5.577 8.014-4.852 11.312 1.029 4.685 4.055 7.599 13.922 13.406 10.094 5.94 14.572 10.303 14.572 14.194 0 8.646-10.974 16.138-27.43 18.727l-8.07 1.27 8.5 3.308c23.628 9.196 51.466 9.74 76.24 1.489 7.551-2.515 7.76-2.671 7.76-5.824 0-8.174-6.271-18.68-15.443-25.875-2.959-2.322-11.608-7.371-19.219-11.221-12.075-6.108-13.877-7.337-14.144-9.642-.715-6.177 14.336-11.549 41.806-14.92 18.488-2.268 32.224-8.273 42.553-18.602 10.055-10.055 14.459-21.59 14.432-37.796-.02-11.886-1.481-14.133-2.357-3.626M107.872 116.75c-1.243 1.586-1.208 1.621.378.378 1.666-1.307 2.195-2.128 1.372-2.128-.207 0-.995.787-1.75 1.75M89 120.5c0 .825.675 1.5 1.5 1.5s1.5-.675 1.5-1.5-.675-1.5-1.5-1.5-1.5.675-1.5 1.5m-39 2.909c0 .19.675.906 1.5 1.591.865.718 1.5.815 1.5.229 0-.558-.675-1.274-1.5-1.591s-1.5-.419-1.5-.229m38.75 1.253c.688.278 1.813.278 2.5 0 .688-.277.125-.504-1.25-.504s-1.937.227-1.25.504m-54.671 1.921c.048 1.165.285 1.402.604.605.289-.722.253-1.585-.079-1.917s-.568.258-.525 1.312m9.734 1.1c.721.289 1.584.253 1.916-.079s-.258-.568-1.312-.525c-1.165.048-1.402.285-.604.604M33 132c0 .55.675 1 1.5 1s1.5-.45 1.5-1-.675-1-1.5-1-1.5.45-1.5 1"/></svg>